<svg width="25" height="16" viewBox="0 0 25 16" fill="none" xmlns="http://www.w3.org/2000/svg">
<mask id="mask0_52_309" style="mask-type:alpha" maskUnits="userSpaceOnUse" x="0" y="0" width="25" height="16">
<rect width="25" height="15.8571" fill="#D9D9D9"/>
</mask>
<g mask="url(#mask0_52_309)">
<path d="M7.08333 14.875C6.51042 14.875 6.01997 14.7456 5.61198 14.4868C5.20399 14.2281 5 13.917 5 13.5536V6.94643C5 6.58304 5.20399 6.27195 5.61198 6.01317C6.01997 5.75439 6.51042 5.625 7.08333 5.625H8.125V4.30357C8.125 3.38958 8.63281 2.61049 9.64844 1.96629C10.6641 1.3221 11.8924 1 13.3333 1C14.7743 1 16.0026 1.3221 17.0182 1.96629C18.0339 2.61049 18.5417 3.38958 18.5417 4.30357V5.625H19.5833C20.1562 5.625 20.6467 5.75439 21.0547 6.01317C21.4627 6.27195 21.6667 6.58304 21.6667 6.94643V13.5536C21.6667 13.917 21.4627 14.2281 21.0547 14.4868C20.6467 14.7456 20.1562 14.875 19.5833 14.875H7.08333ZM7.08333 13.5536H19.5833V6.94643H7.08333V13.5536ZM13.3333 11.5714C13.9062 11.5714 14.3967 11.442 14.8047 11.1833C15.2127 10.9245 15.4167 10.6134 15.4167 10.25C15.4167 9.88661 15.2127 9.57552 14.8047 9.31674C14.3967 9.05796 13.9062 8.92857 13.3333 8.92857C12.7604 8.92857 12.27 9.05796 11.862 9.31674C11.454 9.57552 11.25 9.88661 11.25 10.25C11.25 10.6134 11.454 10.9245 11.862 11.1833C12.27 11.442 12.7604 11.5714 13.3333 11.5714ZM10.2083 5.625H16.4583V4.30357C16.4583 3.75298 16.1545 3.28497 15.5469 2.89955C14.9392 2.51414 14.2014 2.32143 13.3333 2.32143C12.4653 2.32143 11.7274 2.51414 11.1198 2.89955C10.5122 3.28497 10.2083 3.75298 10.2083 4.30357V5.625Z" fill="#9A9A9A"/>
</g>
</svg>
