<svg width="40" height="42" viewBox="0 0 40 42" fill="none" xmlns="http://www.w3.org/2000/svg">
<g clip-path="url(#clip0_52_347)">
<path d="M39.2032 37.0289H38.9727V16.1033C38.9727 14.2104 37.5061 12.6706 35.7034 12.6706H25.0422C25.1308 12.4135 25.1793 12.1363 25.1793 11.8475C25.1793 11.5536 25.1291 11.2718 25.0377 11.0108H25.4184C25.7354 11.0108 26.0224 10.8135 26.149 10.5081L29.0972 3.39653C29.2045 3.13781 29.1803 2.84003 29.033 2.60395C28.8857 2.36811 28.6352 2.22587 28.3666 2.22587H14.6728L13.432 0.923128C13.2827 0.766284 13.0799 0.678101 12.8686 0.678101H10.5578C10.1177 0.678101 9.76102 1.05274 9.76102 1.51474C9.76102 1.97674 10.1177 2.35137 10.5578 2.35137H12.5385L13.3067 3.15815V10.1741C13.3067 10.6361 13.6634 11.0108 14.1035 11.0108H14.4045C14.313 11.2717 14.2629 11.5535 14.2629 11.8474C14.2629 12.1362 14.3114 12.4133 14.4 12.6705H4.29656C2.49383 12.6705 1.02734 14.2104 1.02734 16.1032V37.0289H0.796797C0.356719 37.0289 0 37.4037 0 37.8657V40.4854C0 40.9474 0.356719 41.322 0.796797 41.322H39.2032C39.6432 41.322 40 40.9474 40 40.4854V37.8657C40 37.4037 39.6432 37.0289 39.2032 37.0289ZM14.9004 8.66811H23.8247C24.2647 8.66811 24.6215 8.29347 24.6215 7.83147C24.6215 7.36947 24.2647 6.99483 23.8247 6.99483H14.9004V6.32546H23.8247C24.2647 6.32546 24.6215 5.95082 24.6215 5.48882C24.6215 5.02682 24.2647 4.65219 23.8247 4.65219H14.9004V3.89922H27.1506L24.8961 9.33748H14.9004V8.66811ZM23.5856 11.8474C23.5856 12.2626 23.264 12.6004 22.8685 12.6004C22.473 12.6004 22.1514 12.2626 22.1514 11.8474C22.1514 11.4322 22.473 11.0944 22.8685 11.0944C23.264 11.0944 23.5856 11.4322 23.5856 11.8474ZM20.6949 12.6705H18.7473C18.8359 12.4134 18.8845 12.1362 18.8845 11.8474C18.8845 11.5536 18.8343 11.2717 18.7428 11.0108H20.6995C20.6079 11.2717 20.5578 11.5535 20.5578 11.8474C20.5577 12.1362 20.6063 12.4133 20.6949 12.6705ZM17.2909 11.8474C17.2909 12.2626 16.9691 12.6004 16.5737 12.6004C16.1784 12.6004 15.8566 12.2626 15.8566 11.8474C15.8566 11.4322 16.1784 11.0944 16.5737 11.0944C16.9691 11.0944 17.2909 11.4322 17.2909 11.8474ZM2.62094 16.1033C2.62094 15.1331 3.37266 14.3439 4.29656 14.3439H35.7034C36.6274 14.3439 37.3791 15.1332 37.3791 16.1033V20.3813H2.62094V16.1033ZM2.62094 22.0545H37.3791V37.0289H27.3307V25.4426C27.3307 24.9806 26.9739 24.606 26.5339 24.606H13.4662C13.0261 24.606 12.6694 24.9806 12.6694 25.4426V37.0289H2.62094V22.0545ZM25.737 26.2792V37.0289H20.7171V26.2792H25.737ZM19.1235 26.2792V37.0289H14.263V26.2792H19.1235ZM38.4064 39.6487H1.59359V38.7023H38.4063L38.4064 39.6487Z" fill="#E6E6E6"/>
<path d="M35.568 15.3612H27.6654C27.2254 15.3612 26.8686 15.7358 26.8686 16.1978C26.8686 16.6598 27.2254 17.0345 27.6654 17.0345H35.568C36.008 17.0345 36.3648 16.6598 36.3648 16.1978C36.3648 15.7359 36.008 15.3612 35.568 15.3612Z" fill="#E6E6E6"/>
<path d="M25.2157 15.3612H24.5834C24.1434 15.3612 23.7867 15.7358 23.7867 16.1978C23.7867 16.6598 24.1434 17.0345 24.5834 17.0345H25.2157C25.6557 17.0345 26.0125 16.6598 26.0125 16.1978C26.0125 15.7359 25.6557 15.3612 25.2157 15.3612Z" fill="#E6E6E6"/>
</g>
<defs>
<clipPath id="clip0_52_347">
<rect width="40" height="42" fill="white"/>
</clipPath>
</defs>
</svg>
