<svg width="17" height="12" viewBox="0 0 17 12" fill="none" xmlns="http://www.w3.org/2000/svg">
<path d="M2.35949 11.2121C1.9183 11.2121 1.54063 11.083 1.22645 10.8249C0.912275 10.5667 0.755188 10.2564 0.755188 9.8939V1.98481C0.755188 1.62231 0.912275 1.31199 1.22645 1.05384C1.54063 0.795698 1.9183 0.666626 2.35949 0.666626H15.1939C15.635 0.666626 16.0127 0.795698 16.3269 1.05384C16.6411 1.31199 16.7982 1.62231 16.7982 1.98481V9.8939C16.7982 10.2564 16.6411 10.5667 16.3269 10.8249C16.0127 11.083 15.635 11.2121 15.1939 11.2121H2.35949ZM8.77668 6.59844L2.35949 3.30299V9.8939H15.1939V3.30299L8.77668 6.59844ZM8.77668 5.28026L15.1939 1.98481H2.35949L8.77668 5.28026ZM2.35949 3.30299V1.98481V9.8939V3.30299Z" fill="#9A9A9A"/>
</svg>
