<svg width="24" height="24" viewBox="0 0 24 24" fill="none" xmlns="http://www.w3.org/2000/svg">
<mask id="mask0_58_50" style="mask-type:alpha" maskUnits="userSpaceOnUse" x="0" y="0" width="24" height="24">
<rect width="24" height="24" fill="#D9D9D9"/>
</mask>
<g mask="url(#mask0_58_50)">
<path d="M5 17H7V15H9V13H7V11H5V13H3V15H5V17ZM11 13.5H17V12H11V13.5ZM11 16.5H15V15H11V16.5ZM2 21C1.45 21 0.979167 20.8042 0.5875 20.4125C0.195833 20.0208 0 19.55 0 19V8C0 7.45 0.195833 6.97917 0.5875 6.5875C0.979167 6.19583 1.45 6 2 6H7V3C7 2.45 7.19583 1.97917 7.5875 1.5875C7.97917 1.19583 8.45 1 9 1H11C11.55 1 12.0208 1.19583 12.4125 1.5875C12.8042 1.97917 13 2.45 13 3V6H18C18.55 6 19.0208 6.19583 19.4125 6.5875C19.8042 6.97917 20 7.45 20 8V19C20 19.55 19.8042 20.0208 19.4125 20.4125C19.0208 20.8042 18.55 21 18 21H2ZM2 19H18V8H13C13 8.55 12.8042 9.02083 12.4125 9.4125C12.0208 9.80417 11.55 10 11 10H9C8.45 10 7.97917 9.80417 7.5875 9.4125C7.19583 9.02083 7 8.55 7 8H2V19ZM9 8H11V3H9V8Z" fill="#9A9A9A"/>
</g>
</svg>
