<svg width="16" height="14" viewBox="0 0 16 14" fill="none" xmlns="http://www.w3.org/2000/svg">
<path d="M8 7.30932C6.9 7.30932 5.95833 6.9881 5.175 6.34565C4.39167 5.70321 4 4.9309 4 4.02874C4 3.12659 4.39167 2.35428 5.175 1.71184C5.95833 1.06939 6.9 0.748169 8 0.748169C9.1 0.748169 10.0417 1.06939 10.825 1.71184C11.6083 2.35428 12 3.12659 12 4.02874C12 4.9309 11.6083 5.70321 10.825 6.34565C10.0417 6.9881 9.1 7.30932 8 7.30932ZM0 13.8705V11.5741C0 11.1093 0.145833 10.6822 0.4375 10.2926C0.729167 9.90302 1.11667 9.60572 1.6 9.40069C2.63333 8.97695 3.68333 8.65914 4.75 8.44727C5.81667 8.2354 6.9 8.12946 8 8.12946C9.1 8.12946 10.1833 8.2354 11.25 8.44727C12.3167 8.65914 13.3667 8.97695 14.4 9.40069C14.8833 9.60572 15.2708 9.90302 15.5625 10.2926C15.8542 10.6822 16 11.1093 16 11.5741V13.8705H0ZM2 12.2302H14V11.5741C14 11.4237 13.9542 11.287 13.8625 11.164C13.7708 11.041 13.65 10.9453 13.5 10.8769C12.6 10.5079 11.6917 10.2311 10.775 10.0466C9.85833 9.86202 8.93333 9.76975 8 9.76975C7.06667 9.76975 6.14167 9.86202 5.225 10.0466C4.30833 10.2311 3.4 10.5079 2.5 10.8769C2.35 10.9453 2.22917 11.041 2.1375 11.164C2.04583 11.287 2 11.4237 2 11.5741V12.2302ZM8 5.66903C8.55 5.66903 9.02083 5.50842 9.4125 5.1872C9.80417 4.86597 10 4.47982 10 4.02874C10 3.57767 9.80417 3.19151 9.4125 2.87029C9.02083 2.54907 8.55 2.38846 8 2.38846C7.45 2.38846 6.97917 2.54907 6.5875 2.87029C6.19583 3.19151 6 3.57767 6 4.02874C6 4.47982 6.19583 4.86597 6.5875 5.1872C6.97917 5.50842 7.45 5.66903 8 5.66903Z" fill="#9A9A9A"/>
</svg>
