<svg width="24" height="18" viewBox="0 0 24 18" fill="none" xmlns="http://www.w3.org/2000/svg">
<mask id="mask0_87_99" style="mask-type:alpha" maskUnits="userSpaceOnUse" x="0" y="0" width="24" height="18">
<rect width="24" height="18" fill="#D9D9D9"/>
</mask>
<g mask="url(#mask0_87_99)">
<path d="M4 15.75C3.45 15.75 2.97917 15.6031 2.5875 15.3094C2.19583 15.0156 2 14.6625 2 14.25V6C2 5.5875 2.19583 5.23438 2.5875 4.94063C2.97917 4.64688 3.45 4.5 4 4.5H8V3C8 2.5875 8.19583 2.23438 8.5875 1.94063C8.97917 1.64688 9.45 1.5 10 1.5H14C14.55 1.5 15.0208 1.64688 15.4125 1.94063C15.8042 2.23438 16 2.5875 16 3V4.5H20C20.55 4.5 21.0208 4.64688 21.4125 4.94063C21.8042 5.23438 22 5.5875 22 6V14.25C22 14.6625 21.8042 15.0156 21.4125 15.3094C21.0208 15.6031 20.55 15.75 20 15.75H4ZM4 14.25H20V6H4V14.25ZM10 4.5H14V3H10V4.5Z" fill="#9A9A9A"/>
</g>
</svg>
